<svg xmlns="http://www.w3.org/2000/svg" xmlns:xlink="http://www.w3.org/1999/xlink" id="Layer_1" x="0px" y="0px" viewBox="0 0 385 88" style="enable-background:new 0 0 385 88;" xml:space="preserve"><style type="text/css">	.st0{fill-rule:evenodd;clip-rule:evenodd;fill:#AAA9AE;}</style><g>	<polygon class="st0" points="84.4,17.4 84.4,1.3 101.6,1.3 101.6,17.4 84.4,17.4  "></polygon>	<polygon class="st0" points="112.4,82.1 112.4,26.9 129.4,26.9 129.4,82.1 112.4,82.1  "></polygon>	<polygon class="st0" points="1.1,1.3 18.1,1.3 18.1,82.1 1.1,82.1 1.1,1.3  "></polygon>	<polygon class="st0" points="56.7,82.1 56.7,1.3 73.8,1.3 73.8,82.1 56.7,82.1  "></polygon>	<polygon class="st0" points="28.9,56.5 28.9,1.3 46,1.3 46,56.5 28.9,56.5  "></polygon>	<polygon class="st0" points="112.3,17.4 112.3,1.3 157.3,1.3 157.3,17.4 112.3,17.4  "></polygon>	<path class="st0" d="M212.4,1v19.5h-4.7l0.3-13.9l0.1-2L208,5.4c-0.2,1.1-0.3,1.2-0.5,2.1l-3.7,13.1h-4.2L196.1,8l-0.9-3.5  c0.1,1.5,0.1,1.9,0.2,3.7l0.2,12.3H191V1h7.1l3,10.9l0.7,3.1c0.3-1.3,0.3-1.5,0.5-2.4L205.4,1H212.4L212.4,1z"></path>	<path class="st0" d="M216.2,10.2c0.1-1,0.2-2.2,1.5-3.2c1.3-1,3-1.3,4.7-1.3c1.8,0,6,0.4,6,4.1v8.4c0,1.5,0.1,1.8,0.4,2.3h-4.2  v-1.3c-1.1,0.8-2.3,1.7-4.4,1.7c-3.3,0-4.7-2.4-4.7-4.4c0-2.3,1.8-3.6,3-4.1c1.2-0.5,3.9-1,5.7-1.3v-0.8c-0.1-0.7-0.1-1.8-1.6-1.8  c-1.9,0-2.1,1.2-2.2,1.7H216.2L216.2,10.2z M221.5,14.5c-0.7,0.3-1.8,0.7-1.8,1.8c0,0.7,0.6,1.5,1.6,1.5c0.5,0,1-0.2,1.5-0.5  c1.4-0.9,1.5-2.2,1.5-3.7L221.5,14.5L221.5,14.5z"></path>	<path class="st0" d="M233,15.6c1.2,1.1,2.6,2,4.2,2c1,0,2.6-0.3,2.6-1.4c0-0.5-0.3-0.7-0.6-0.8c-0.6-0.3-1.6-0.4-2.5-0.6  c-0.6-0.1-1.3-0.2-1.9-0.4c-0.9-0.2-1.8-0.6-2.4-1.2c-0.6-0.6-1.1-1.6-1.1-2.7c0-2.4,2-4.8,6.1-4.8c3.4,0,5.4,1.5,6.4,2.1l-2.6,2.4  c-1.4-1-2.6-1.4-3.6-1.4c-1.7,0-2,0.7-2,1.1c0,0.8,0.9,1,2.3,1.2c2.9,0.5,6.3,1.3,6.3,4.7c0,3.4-3.4,5-6.8,5c-4,0-6.1-1.9-7-2.8  L233,15.6L233,15.6z"></path>	<path class="st0" d="M247.4,15.6c1.2,1.1,2.6,2,4.2,2c1,0,2.6-0.3,2.6-1.4c0-0.5-0.3-0.7-0.5-0.8c-0.6-0.3-1.6-0.4-2.5-0.6  c-0.6-0.1-1.3-0.2-1.9-0.4c-0.9-0.2-1.8-0.6-2.4-1.2c-0.6-0.6-1.1-1.6-1.1-2.7c0-2.4,2-4.8,6.1-4.8c3.4,0,5.4,1.5,6.4,2.1l-2.6,2.4  c-1.3-1-2.6-1.4-3.6-1.4c-1.7,0-2,0.7-2,1.1c0,0.8,0.9,1,2.3,1.2c2.9,0.5,6.3,1.3,6.3,4.7c0,3.4-3.4,5-6.8,5c-4,0-6.1-1.9-7-2.8  L247.4,15.6L247.4,15.6z"></path>	<path class="st0" d="M260.9,10.2c0.1-1,0.2-2.2,1.5-3.2c1.3-1,3-1.3,4.7-1.3c1.8,0,6,0.4,6,4.1v8.4c0,1.5,0.1,1.8,0.4,2.3h-4.2  v-1.3c-1.1,0.8-2.3,1.7-4.4,1.7c-3.3,0-4.7-2.4-4.7-4.4c0-2.3,1.8-3.6,3-4.1c1.2-0.5,3.9-1,5.7-1.3v-0.8c-0.1-0.7-0.1-1.8-1.6-1.8  c-1.9,0-2.1,1.2-2.2,1.7H260.9L260.9,10.2z M266.3,14.5c-0.7,0.3-1.8,0.7-1.8,1.8c0,0.7,0.6,1.5,1.6,1.5c0.5,0,1-0.2,1.5-0.5  c1.4-0.9,1.5-2.2,1.5-3.7L266.3,14.5L266.3,14.5z"></path>	<path class="st0" d="M289.6,17.1c-0.5,0.8-1.1,1.7-2.3,2.6c-1.1,0.8-2.5,1.3-4.1,1.3c-2.8,0-7.1-1.7-7.1-7.5c0-4.2,2.4-7.7,7.2-7.7  c1.6,0,4.3,0.4,6.1,3.4l-3.1,1.8c-0.2-0.5-0.5-1-1.2-1.5c-0.4-0.3-0.9-0.5-1.6-0.5c-2.3,0-3.1,2.6-3.1,4.4c0,1.9,0.9,4.3,3.2,4.3  c0.2,0,1.3,0,2.1-1c0.4-0.4,0.5-0.7,0.6-1.2L289.6,17.1L289.6,17.1z"></path>	<path class="st0" d="M294.5,1v6.6c0.6-0.6,1.8-1.9,4.1-1.9c1,0,2.2,0.3,3.1,1c1.3,1.1,1.5,2.4,1.5,4.3v9.4H299V13  c0-1.2,0-1.7-0.2-2.2c-0.4-1.3-1.5-1.4-2-1.4c-0.7,0-1.4,0.4-1.7,0.8c-0.5,0.7-0.5,1.9-0.5,3.2v7.2h-4.2V1H294.5L294.5,1z"></path>	<path class="st0" d="M315.5,6.1h4.2v14.4h-4.2v-1.4c-0.4,0.5-0.7,0.7-1.4,1.1c-0.9,0.4-1.8,0.7-2.7,0.7c-0.9,0-2.7-0.1-3.7-1.5  c-0.7-1-0.9-1.9-0.9-4.2v-9h4.3V15c0,0.6,0,1.3,0.3,1.7c0.2,0.3,0.8,0.7,1.7,0.7c0.2,0,0.8,0,1.5-0.4c0.9-0.6,0.9-1.3,1-2V6.1  L315.5,6.1z"></path>	<path class="st0" d="M324.3,15.6c1.2,1.1,2.6,2,4.2,2c1,0,2.6-0.3,2.6-1.4c0-0.5-0.3-0.7-0.6-0.8c-0.6-0.3-1.6-0.4-2.5-0.6  c-0.6-0.1-1.3-0.2-1.9-0.4c-0.9-0.2-1.8-0.6-2.4-1.2c-0.6-0.6-1.1-1.6-1.1-2.7c0-2.4,2-4.8,6.1-4.8c3.4,0,5.4,1.5,6.4,2.1l-2.6,2.4  c-1.4-1-2.6-1.4-3.6-1.4c-1.7,0-2,0.7-2,1.1c0,0.8,0.9,1,2.3,1.2c2.9,0.5,6.3,1.3,6.3,4.7c0,3.4-3.4,5-6.8,5c-4,0-6.1-1.9-7-2.8  L324.3,15.6L324.3,15.6z"></path>	<path class="st0" d="M351.4,16.8c-0.5,0.7-1,1.5-1.7,2.1c-1.2,1.2-3.1,2-5.4,2c-4.3,0-7.3-2.7-7.3-7.4c0-3.5,1.7-7.9,7.4-7.9  c0.9,0,3.3,0.1,5.2,2.1c1.9,2,2,4.8,2,6.4h-10.3c0,1.8,1,3.6,3.3,3.6c2.3,0,3.1-1.5,3.6-2.5L351.4,16.8L351.4,16.8z M347.1,11.5  c-0.1-0.6-0.2-1.4-0.8-2c-0.5-0.5-1.3-0.8-2.1-0.8c-1,0-1.7,0.5-2.1,0.9c-0.6,0.6-0.7,1.3-0.9,1.9H347.1L347.1,11.5z"></path>	<path class="st0" d="M354.5,1.9h4.2v4.5h2.8V9h-2.8v6.5c0,0.9,0,1.6,1.1,1.6l1.5-0.1v3.3c-0.9,0.1-1.5,0.2-2.2,0.2  c-1.5,0-3.1-0.1-4-1.4c-0.6-0.9-0.6-1.9-0.6-3.3V9h-2.1V6.4h2.1V1.9L354.5,1.9z"></path>	<path class="st0" d="M362.6,1.9h4.2v4.5h2.8V9h-2.8v6.5c0,0.9,0,1.6,1.1,1.6l1.5-0.1v3.3c-0.9,0.1-1.5,0.2-2.2,0.2  c-1.5,0-3.1-0.1-4-1.4c-0.6-0.9-0.6-1.9-0.6-3.3V9h-2.1V6.4h2.1V1.9L362.6,1.9z"></path>	<path class="st0" d="M372.6,15.6c1.2,1.1,2.6,2,4.2,2c1,0,2.6-0.3,2.6-1.4c0-0.5-0.3-0.7-0.6-0.8c-0.6-0.3-1.6-0.4-2.5-0.6  c-0.6-0.1-1.3-0.2-1.9-0.4c-0.9-0.2-1.8-0.6-2.4-1.2c-0.6-0.6-1.1-1.6-1.1-2.7c0-2.4,2-4.8,6.1-4.8c3.4,0,5.4,1.5,6.4,2.1l-2.6,2.4  c-1.3-1-2.6-1.4-3.6-1.4c-1.7,0-2,0.7-2,1.1c0,0.8,0.9,1,2.3,1.2c2.9,0.5,6.3,1.3,6.3,4.7c0,3.4-3.4,5-6.8,5c-4,0-6.1-1.9-7-2.8  L372.6,15.6L372.6,15.6z"></path>	<polygon class="st0" points="196,31.6 196,51.1 191.1,51.1 191.1,31.6 196,31.6  "></polygon>	<path class="st0" d="M204.1,38c0.4-0.4,0.7-0.8,1.4-1.1c0.7-0.3,1.6-0.5,2.6-0.5c0.9,0,1.8,0.2,2.6,0.6c1.5,0.8,1.9,2.1,1.9,4.3  v9.8h-4.2V43c0-1.3,0-1.8-0.2-2.1c-0.3-0.8-1.1-1.1-1.9-1.1c-2.2,0-2.2,1.8-2.2,3.6v7.8h-4.2V36.7h4.3V38L204.1,38z"></path>	<path class="st0" d="M217.2,46.2c1.2,1.1,2.6,2,4.2,2c1,0,2.6-0.3,2.6-1.4c0-0.5-0.3-0.7-0.6-0.8c-0.6-0.3-1.6-0.4-2.5-0.6  c-0.6-0.1-1.3-0.2-1.9-0.4c-0.9-0.2-1.8-0.6-2.4-1.2c-0.6-0.6-1.1-1.6-1.1-2.7c0-2.4,2-4.8,6.1-4.8c3.4,0,5.4,1.5,6.4,2.1l-2.6,2.4  c-1.4-1-2.6-1.4-3.6-1.4c-1.7,0-2,0.7-2,1.1c0,0.8,0.9,1,2.3,1.2c2.9,0.5,6.3,1.3,6.3,4.7c0,3.4-3.4,5-6.8,5c-4,0-6.1-1.9-7-2.8  L217.2,46.2L217.2,46.2z"></path>	<path class="st0" d="M231.3,32.6h4.2V37h2.8v2.6h-2.8v6.5c0,0.9,0,1.6,1.1,1.6l1.5-0.1V51c-0.9,0.1-1.5,0.2-2.2,0.2  c-1.5,0-3.1-0.1-4-1.4c-0.6-0.9-0.6-1.9-0.6-3.3v-6.9h-2.1V37h2.1V32.6L231.3,32.6z"></path>	<path class="st0" d="M240.6,31.6h4.2v3.3h-4.2V31.6L240.6,31.6z M240.6,36.7h4.2v14.4h-4.2V36.7L240.6,36.7z"></path>	<path class="st0" d="M249.1,32.6h4.2V37h2.8v2.6h-2.8v6.5c0,0.9,0,1.6,1.1,1.6l1.5-0.1V51c-0.9,0.1-1.5,0.2-2.2,0.2  c-1.5,0-3.1-0.1-4-1.4c-0.6-0.9-0.6-1.9-0.6-3.3v-6.9H247V37h2.1V32.6L249.1,32.6z"></path>	<path class="st0" d="M266.9,36.7h4.2v14.4h-4.2v-1.4c-0.4,0.5-0.7,0.7-1.4,1.1c-0.9,0.4-1.8,0.7-2.7,0.7c-0.9,0-2.7-0.1-3.7-1.5  c-0.7-1-0.9-1.9-0.9-4.2v-9h4.3v8.9c0,0.6,0,1.3,0.3,1.7c0.2,0.3,0.8,0.7,1.7,0.7c0.2,0,0.8,0,1.5-0.4c0.9-0.6,0.9-1.3,1-2V36.7  L266.9,36.7z"></path>	<path class="st0" d="M275.5,32.6h4.2V37h2.8v2.6h-2.8v6.5c0,0.9,0,1.6,1.1,1.6l1.5-0.1V51c-0.9,0.1-1.5,0.2-2.2,0.2  c-1.5,0-3.1-0.1-4-1.4c-0.6-0.9-0.6-1.9-0.6-3.3v-6.9h-2.1V37h2.1V32.6L275.5,32.6z"></path>	<path class="st0" d="M298.2,47.4c-0.5,0.7-1,1.5-1.7,2.1c-1.2,1.2-3.1,2-5.4,2c-4.3,0-7.3-2.7-7.3-7.4c0-3.5,1.7-7.9,7.4-7.9  c0.9,0,3.3,0.1,5.2,2.1c1.9,2,2,4.8,2,6.4H288c0,1.8,1,3.6,3.3,3.6c2.3,0,3.1-1.5,3.6-2.5L298.2,47.4L298.2,47.4z M293.9,42.1  c-0.1-0.6-0.2-1.4-0.8-2c-0.5-0.5-1.3-0.8-2.1-0.8c-1,0-1.7,0.5-2.1,0.9c-0.6,0.6-0.7,1.3-0.9,1.9H293.9L293.9,42.1z"></path>	<path class="st0" d="M322.7,43.9c0,3.6-2.1,7.6-7.7,7.6c-4,0-7.7-2.3-7.7-7.6c0-4.4,2.8-7.9,8.3-7.6  C321.4,36.6,322.7,41.3,322.7,43.9L322.7,43.9z M312.2,41c-0.5,0.8-0.7,1.8-0.7,2.8c0,2.3,1.1,4.3,3.5,4.3c2.3,0,3.4-1.8,3.4-4.1  c0-1.6-0.4-2.8-1.2-3.6c-0.9-0.8-1.9-0.9-2.5-0.8C313.5,39.7,312.8,40.1,312.2,41L312.2,41z"></path>	<path class="st0" d="M326.1,35.3c0-0.7,0.1-1.7,0.6-2.5c0.5-0.7,1.7-1.5,3.7-1.5c0.9,0,1.7,0.1,2.5,0.2v3.2h-1  c-1.6,0-1.7,0.3-1.7,2.3h2.8v2.6h-2.8v11.5h-4.2V39.6h-2.3V37h2.3V35.3L326.1,35.3z"></path>	<polygon class="st0" points="185.8,62.5 200.8,62.5 200.8,66.4 195.7,66.4 195.7,82 190.9,82 190.9,66.4 185.8,66.4 185.8,62.5    "></polygon>	<path class="st0" d="M214.1,78.4c-0.5,0.7-1,1.5-1.7,2.1c-1.2,1.2-3.1,2-5.4,2c-4.3,0-7.3-2.7-7.3-7.4c0-3.5,1.7-7.9,7.4-7.9  c0.9,0,3.3,0.1,5.2,2.1c1.9,2,2,4.8,2,6.4H204c0,1.8,1,3.6,3.3,3.6c2.3,0,3.1-1.5,3.6-2.5L214.1,78.4L214.1,78.4z M209.9,73  c-0.1-0.6-0.2-1.4-0.8-2c-0.5-0.5-1.3-0.8-2.1-0.8c-1,0-1.7,0.5-2.1,0.9c-0.6,0.6-0.7,1.3-0.9,1.9H209.9L209.9,73z"></path>	<path class="st0" d="M229.3,78.6c-0.5,0.8-1.1,1.7-2.3,2.6c-1.1,0.8-2.5,1.3-4.1,1.3c-2.8,0-7.1-1.7-7.1-7.5c0-4.2,2.4-7.7,7.2-7.7  c1.6,0,4.3,0.4,6.1,3.4l-3.1,1.8c-0.2-0.5-0.5-1-1.2-1.5c-0.4-0.3-0.9-0.5-1.6-0.5c-2.3,0-3.1,2.6-3.1,4.4c0,1.9,0.9,4.3,3.2,4.3  c0.2,0,1.3,0,2.1-1c0.4-0.4,0.5-0.7,0.6-1.2L229.3,78.6L229.3,78.6z"></path>	<path class="st0" d="M234.2,62.5v6.6c0.6-0.6,1.8-1.9,4.1-1.9c1,0,2.2,0.3,3.1,1c1.3,1.1,1.5,2.4,1.5,4.3V82h-4.2v-7.5  c0-1.2,0-1.7-0.2-2.2c-0.4-1.3-1.5-1.4-2-1.4c-0.7,0-1.4,0.4-1.7,0.8c-0.6,0.7-0.6,1.9-0.6,3.2V82H230V62.5H234.2L234.2,62.5z"></path>	<path class="st0" d="M251,68.9c0.4-0.4,0.7-0.8,1.4-1.1c0.7-0.3,1.6-0.5,2.6-0.5c0.9,0,1.8,0.2,2.6,0.6c1.5,0.8,1.9,2.1,1.9,4.3V82  h-4.2v-8.1c0-1.3,0-1.8-0.2-2.1c-0.3-0.8-1.1-1.1-1.9-1.1c-2.2,0-2.2,1.8-2.2,3.6V82h-4.2V67.7h4.3V68.9L251,68.9z"></path>	<path class="st0" d="M277.7,74.8c0,3.6-2.1,7.6-7.7,7.6c-4.1,0-7.7-2.3-7.7-7.6c0-4.4,2.8-7.9,8.3-7.6  C276.4,67.5,277.7,72.2,277.7,74.8L277.7,74.8z M267.3,72c-0.5,0.8-0.7,1.8-0.7,2.8c0,2.3,1.1,4.3,3.5,4.3c2.3,0,3.4-1.8,3.4-4.1  c0-1.6-0.4-2.8-1.2-3.6c-0.9-0.8-1.9-0.9-2.5-0.8C268.6,70.6,267.9,71.1,267.3,72L267.3,72z"></path>	<polygon class="st0" points="284.7,62.6 284.7,82 280.5,82 280.5,62.6 284.7,62.6  "></polygon>	<path class="st0" d="M303,74.8c0,3.6-2.1,7.6-7.7,7.6c-4.1,0-7.7-2.3-7.7-7.6c0-4.4,2.8-7.9,8.3-7.6C301.7,67.5,303,72.2,303,74.8  L303,74.8z M292.5,72c-0.5,0.8-0.7,1.8-0.7,2.8c0,2.3,1.1,4.3,3.5,4.3c2.3,0,3.4-1.8,3.4-4.1c0-1.6-0.4-2.8-1.2-3.6  c-0.9-0.8-1.9-0.9-2.5-0.8C293.8,70.6,293.1,71.1,292.5,72L292.5,72z"></path>	<path class="st0" d="M314.5,80.1c-0.8,0.6-1.8,1.2-3.8,1.2c-1.2,0-2.3-0.3-3.3-0.9c-1.9-1.2-2.7-3.5-2.7-5.9c0-2.9,1.4-7.1,6.1-7.1  c2.2,0,3.2,1,3.9,1.6v-1.3h4v13.8c-0.1,1.6-0.1,3.4-2.2,4.6c-1.5,0.9-3.6,1.1-4.9,1.1c-2.9,0-4.7-1-5.5-1.8  c-1.1-1.1-1.1-2.6-1.1-3.4h4.4c0.1,0.6,0.1,1.5,1.2,2.1c0.3,0.1,0.7,0.3,1.4,0.3c2.6,0,2.6-1.5,2.6-2.7V80.1L314.5,80.1z   M309.1,74.4c0,1.2,0.1,3.7,2.7,3.7c2.1,0,2.6-1.7,2.6-3.7c0-0.7-0.1-2.1-0.5-2.8c-0.3-0.5-1.1-1.1-2.3-1  C309.6,70.6,309.1,72.4,309.1,74.4L309.1,74.4z"></path>	<path class="st0" d="M334.3,67.6l-5.1,15.5c-0.3,0.9-0.6,1.8-1.3,2.6c-1,1.1-2,1.1-3.1,1.2h-3.1v-3.4h1.5c0.7,0,1.8,0,1.8-1  c0-0.4-0.1-0.7-0.2-1l-4.3-13.9h4.5l2.4,10.3l2.4-10.3H334.3L334.3,67.6z"></path>	<polygon class="st0" points="84.6,82 84.6,26.8 101.6,26.8 101.6,82 84.6,82  "></polygon></g></svg>